<?xml version="1.0" encoding="UTF-8" standalone="no"?>
<svg
   width="576pt"
   height="432pt"
   viewBox="0 0 576 432"
   version="1.1"
   id="svg289"
   sodipodi:docname="cache_size.svg"
   inkscape:version="1.2.1 (9c6d41e, 2022-07-14)"
   xmlns:inkscape="http://www.inkscape.org/namespaces/inkscape"
   xmlns:sodipodi="http://sodipodi.sourceforge.net/DTD/sodipodi-0.dtd"
   xmlns:xlink="http://www.w3.org/1999/xlink"
   xmlns="http://www.w3.org/2000/svg"
   xmlns:svg="http://www.w3.org/2000/svg"
   xmlns:rdf="http://www.w3.org/1999/02/22-rdf-syntax-ns#"
   xmlns:cc="http://creativecommons.org/ns#"
   xmlns:dc="http://purl.org/dc/elements/1.1/">
  <sodipodi:namedview
     id="namedview291"
     pagecolor="#ffffff"
     bordercolor="#000000"
     borderopacity="0.25"
     inkscape:showpageshadow="2"
     inkscape:pageopacity="0.0"
     inkscape:pagecheckerboard="0"
     inkscape:deskcolor="#d1d1d1"
     inkscape:document-units="pt"
     showgrid="false"
     inkscape:zoom="1.5121528"
     inkscape:cx="625.59815"
     inkscape:cy="133.91504"
     inkscape:window-width="959"
     inkscape:window-height="1042"
     inkscape:window-x="0"
     inkscape:window-y="38"
     inkscape:window-maximized="1"
     inkscape:current-layer="axes_1" />
  <metadata
     id="metadata2">
    <rdf:RDF>
      <cc:Work>
        <dc:type
           rdf:resource="http://purl.org/dc/dcmitype/StillImage" />
        <dc:date>2022-10-28T09:50:28.086052</dc:date>
        <dc:format>image/svg+xml</dc:format>
        <dc:creator>
          <cc:Agent>
            <dc:title>Matplotlib v3.5.3, https://matplotlib.org/</dc:title>
          </cc:Agent>
        </dc:creator>
      </cc:Work>
    </rdf:RDF>
  </metadata>
  <defs
     id="defs6">
    <style
       type="text/css"
       id="style4">*{stroke-linejoin: round; stroke-linecap: butt}</style>
  </defs>
  <g
     id="figure_1">
    <g
       id="patch_1">
      <path
         d="M 0 432  L 576 432  L 576 0  L 0 0  z "
         style="fill: #ffffff"
         id="path8" />
    </g>
    <g
       id="axes_1">
      <g
         id="patch_2">
        <path
           d="M 94.560538 360.047158  L 565.2 360.047158  L 565.2 10.8  L 94.560538 10.8  z "
           style="fill: #ffffff"
           id="path11" />
      </g>
      <g
         id="patch_3">
        <path
           d="M 153.39047 360.047158  L 212.220403 360.047158  L 212.220403 27.430817  L 153.39047 27.430817  z "
           clip-path="url(#pcdeacd5c4c)"
           style="fill: #1f77b4"
           id="path14" />
      </g>
      <g
         id="patch_4"
         transform="translate(-52.5)">
        <path
           d="m 388.7102,360.04716 h 58.82993 V 27.430817 H 388.7102 Z"
           clip-path="url(#pcdeacd5c4c)"
           style="fill:#1f77b4"
           id="path17" />
      </g>
      <g
         id="patch_5">
        <path
           d="M 212.220403 360.047158  L 271.050336 360.047158  L 271.050336 27.430817  L 212.220403 27.430817  z "
           clip-path="url(#pcdeacd5c4c)"
           style="fill: #ff7f0e"
           id="path20" />
      </g>
      <g
         id="patch_6"
         transform="translate(-52.5)">
        <path
           d="m 447.54013,360.04716 h 58.82994 V 27.430817 h -58.82994 z"
           clip-path="url(#pcdeacd5c4c)"
           style="fill:#ff7f0e"
           id="path23" />
      </g>
      <g
         id="matplotlib.axis_1">
        <g
           id="xtick_1">
          <g
             id="line2d_1">
            <defs
               id="defs27">
              <path
                 id="mf3f937bea4"
                 d="M 0 0  L 0 3.5  "
                 style="stroke: #000000; stroke-width: 0.8" />
            </defs>
            <g
               id="g31">
              <use
                 xlink:href="#mf3f937bea4"
                 x="212.220403"
                 y="360.047158"
                 style="stroke: #000000; stroke-width: 0.8"
                 id="use29" />
            </g>
          </g>
          <g
             id="text_1">
            <!-- dragon -->
            <g
               transform="translate(179.323252 385.751563)scale(0.24 -0.24)"
               id="g54">
              <defs
                 id="defs40">
                <path
                   id="CMR17-64"
                   d="M 1869 4326  L 1869 4160  C 2246 4160 2304 4122 2304 3820  L 2304 2345  C 2278 2377 2016 2790 1498 2790  C 845 2790 211 2208 211 1364  C 211 525 806 -64 1434 -64  C 1978 -64 2259 337 2291 380  L 2291 -63  L 3066 -63  L 3066 128  C 2688 128 2630 166 2630 473  L 2630 4396  L 1869 4326  z M 2291 755  C 2291 563 2176 390 2029 262  C 1811 70 1594 38 1472 38  C 1286 38 621 134 621 1356  C 621 2612 1363 2688 1530 2688  C 1824 2688 2061 2522 2208 2291  C 2291 2157 2291 2138 2291 2023  L 2291 755  z "
                   transform="scale(0.015625)" />
                <path
                   id="CMR17-72"
                   d="M 960 1497  C 960 2112 1222 2688 1702 2688  C 1747 2688 1792 2682 1837 2662  C 1837 2662 1696 2617 1696 2452  C 1696 2298 1818 2234 1914 2234  C 1990 2234 2131 2279 2131 2458  C 2131 2663 1926 2790 1709 2790  C 1222 2790 1011 2317 947 2093  L 941 2093  L 941 2790  L 198 2720  L 198 2554  C 576 2554 634 2515 634 2208  L 634 428  C 634 184 608 153 198 153  L 198 -13  C 352 0 646 0 813 0  C 998 0 1325 0 1498 -13  L 1498 153  C 1037 153 960 153 960 440  L 960 1497  z "
                   transform="scale(0.015625)" />
                <path
                   id="CMR17-61"
                   d="M 2304 1653  C 2304 2072 2304 2294 2035 2543  C 1798 2752 1523 2816 1306 2816  C 800 2816 435 2407 435 1971  C 435 1728 627 1728 666 1728  C 749 1728 896 1778 896 1954  C 896 2112 774 2181 666 2181  C 640 2181 608 2174 589 2168  C 723 2592 1069 2714 1293 2714  C 1613 2714 1965 2429 1965 1885  L 1965 1600  C 1587 1600 1133 1549 774 1357  C 371 1133 256 813 256 570  C 256 77 832 -64 1171 -64  C 1523 -64 1850 139 1990 511  C 2003 233 2182 -18 2464 -18  C 2598 -18 2938 70 2938 567  L 2938 920  L 2822 920  L 2822 562  C 2822 178 2650 128 2566 128  C 2304 128 2304 458 2304 738  L 2304 1653  z M 1965 870  C 1965 317 1568 38 1216 38  C 896 38 646 275 646 570  C 646 761 730 1100 1101 1305  C 1408 1478 1760 1504 1965 1504  L 1965 870  z "
                   transform="scale(0.015625)" />
                <path
                   id="CMR17-67"
                   d="M 710 1164  C 832 1068 1043 960 1299 960  C 1805 960 2240 1357 2240 1888  C 2240 2054 2189 2310 1997 2509  C 2176 2692 2438 2752 2586 2752  C 2611 2752 2650 2752 2682 2734  C 2656 2728 2598 2703 2598 2605  C 2598 2527 2656 2471 2739 2471  C 2835 2471 2886 2533 2886 2614  C 2886 2731 2790 2854 2586 2854  C 2330 2854 2106 2738 1926 2580  C 1734 2753 1504 2816 1299 2816  C 794 2816 358 2419 358 1888  C 358 1522 570 1292 634 1228  C 442 1004 442 743 442 711  C 442 545 506 302 723 168  C 390 85 128 -169 128 -486  C 128 -943 736 -1280 1466 -1280  C 2170 -1280 2803 -956 2803 -479  C 2803 384 1856 384 1363 384  C 1216 384 954 384 922 391  C 723 423 589 602 589 826  C 589 883 589 1024 710 1164  z M 1299 1068  C 736 1068 736 1760 736 1889  C 736 2016 736 2708 1299 2708  C 1862 2708 1862 2016 1862 1889  C 1862 1760 1862 1068 1299 1068  z M 1466 -1171  C 826 -1171 384 -835 384 -486  C 384 -289 493 -105 634 -4  C 794 104 858 104 1293 104  C 1818 104 2547 104 2547 -486  C 2547 -835 2106 -1171 1466 -1171  z "
                   transform="scale(0.015625)" />
                <path
                   id="CMR17-6f"
                   d="M 2758 1356  C 2758 2176 2163 2816 1466 2816  C 768 2816 173 2176 173 1356  C 173 551 768 -64 1466 -64  C 2163 -64 2758 551 2758 1356  z M 1466 51  C 1165 51 909 230 762 480  C 602 767 582 1126 582 1408  C 582 1677 595 2010 762 2298  C 890 2509 1139 2714 1466 2714  C 1754 2714 1997 2554 2150 2330  C 2349 2029 2349 1607 2349 1408  C 2349 1158 2336 775 2163 467  C 1984 173 1709 51 1466 51  z "
                   transform="scale(0.015625)" />
                <path
                   id="CMR17-6e"
                   d="M 2656 1933  C 2656 2259 2592 2790 1837 2790  C 1331 2790 1069 2400 973 2144  L 966 2144  L 966 2790  L 211 2720  L 211 2554  C 589 2554 646 2515 646 2208  L 646 428  C 646 184 621 153 211 153  L 211 -13  C 365 0 646 0 813 0  C 979 0 1267 0 1421 -13  L 1421 153  C 1011 153 986 178 986 428  L 986 1658  C 986 2247 1344 2688 1792 2688  C 2266 2688 2317 2266 2317 1958  L 2317 428  C 2317 184 2291 153 1882 153  L 1882 -13  C 2035 0 2317 0 2483 0  C 2650 0 2938 0 3091 -13  L 3091 153  C 2682 153 2656 178 2656 428  L 2656 1933  z "
                   transform="scale(0.015625)" />
              </defs>
              <use
                 xlink:href="#CMR17-64"
                 transform="scale(0.996264)"
                 id="use42" />
              <use
                 xlink:href="#CMR17-72"
                 transform="translate(50.89537 0)scale(0.996264)"
                 id="use44" />
              <use
                 xlink:href="#CMR17-61"
                 transform="translate(86.176138 0)scale(0.996264)"
                 id="use46" />
              <use
                 xlink:href="#CMR17-67"
                 transform="translate(131.866615 0)scale(0.996264)"
                 id="use48" />
              <use
                 xlink:href="#CMR17-6f"
                 transform="translate(177.557092 0)scale(0.996264)"
                 id="use50" />
              <use
                 xlink:href="#CMR17-6e"
                 transform="translate(223.247569 0)scale(0.996264)"
                 id="use52" />
            </g>
          </g>
        </g>
        <g
           id="xtick_2"
           transform="translate(-52.5)">
          <g
             id="line2d_2">
            <g
               id="g60">
              <use
                 xlink:href="#mf3f937bea4"
                 x="447.54013"
                 y="360.04715"
                 style="stroke:#000000;stroke-width:0.8"
                 id="use58" />
            </g>
          </g>
          <g
             id="text_2">
            <!-- mesi -->
            <g
               transform="matrix(0.24,0,0,-0.24,426.17082,385.75156)"
               id="g77">
              <defs
                 id="defs67">
                <path
                   id="CMR17-6d"
                   d="m 4326,1933 c 0,319 -57,857 -819,857 -435,0 -736,-294 -851,-639 h -6 c -77,525 -455,639 -813,639 -506,0 -768,-390 -864,-646 h -7 v 646 l -755,-70 v -166 c 378,0 435,-39 435,-346 V 428 C 646,184 621,153 211,153 V -13 C 365,0 646,0 813,0 c 166,0 454,0 608,-13 v 166 c -410,0 -435,25 -435,275 v 1230 c 0,589 358,1030 806,1030 474,0 525,-422 525,-730 V 428 c 0,-244 -26,-275 -435,-275 V -13 c 153,13 435,13 601,13 167,0 455,0 608,-13 v 166 c -409,0 -435,25 -435,275 v 1230 c 0,589 358,1030 806,1030 474,0 525,-422 525,-730 V 428 c 0,-244 -25,-275 -435,-275 V -13 c 154,13 435,13 602,13 166,0 454,0 608,-13 v 166 c -410,0 -436,25 -436,275 z"
                   transform="scale(0.015625)" />
                <path
                   id="CMR17-65"
                   d="m 2438,1472 c 26,26 26,39 26,104 0,662 -346,1240 -1075,1240 C 710,2816 173,2169 173,1383 173,551 781,-64 1459,-64 c 717,0 999,671 999,804 0,44 -39,44 -52,44 -44,0 -51,-13 -76,-88 C 2189,265 1837,51 1504,51 1229,51 954,203 781,480 582,803 582,1176 582,1472 Z m -1849,96 c 45,937 537,1146 793,1146 436,0 730,-417 736,-1146 z"
                   transform="scale(0.015625)" />
                <path
                   id="CMR17-73"
                   d="m 1978,2697 c 0,116 -7,122 -45,122 -26,0 -32,-6 -109,-102 -19,-26 -77,-91 -96,-116 -205,218 -493,218 -602,218 -710,0 -966,-372 -966,-743 0,-578 653,-711 838,-751 404,-82 544,-108 679,-224 83,-76 224,-217 224,-447 0,-270 -154,-616 -743,-616 -556,0 -755,422 -870,983 -19,89 -19,96 -70,96 -52,0 -58,-7 -58,-134 V 63 c 0,-114 6,-121 45,-121 32,0 38,7 70,58 39,57 135,211 173,276 128,-173 352,-340 710,-340 634,0 973,347 973,848 0,328 -173,501 -256,578 -192,199 -416,244 -685,295 -352,78 -800,168 -800,560 0,166 90,520 736,520 685,0 724,-643 736,-849 7,-32 39,-39 58,-39 58,0 58,20 58,129 z"
                   transform="scale(0.015625)" />
                <path
                   id="CMR17-69"
                   d="m 992,3909 c 0,140 -115,261 -262,261 -141,0 -263,-114 -263,-261 0,-140 115,-261 263,-261 140,0 262,115 262,261 z M 243,2706 v -165 c 359,0 410,-39 410,-344 V 427 C 653,184 627,153 218,153 V -13 C 371,0 646,0 806,0 c 154,0 416,0 564,-13 v 166 c -378,0 -391,38 -391,267 v 2356 z"
                   transform="scale(0.015625)" />
              </defs>
              <use
                 xlink:href="#CMR17-6d"
                 transform="scale(0.996264)"
                 id="use69" />
              <use
                 xlink:href="#CMR17-65"
                 transform="matrix(0.996264,0,0,0.996264,76.91959,0)"
                 id="use71" />
              <use
                 xlink:href="#CMR17-73"
                 transform="matrix(0.996264,0,0,0.996264,117.40525,0)"
                 id="use73" />
              <use
                 xlink:href="#CMR17-69"
                 transform="matrix(0.996264,0,0,0.996264,153.20659,0)"
                 id="use75" />
            </g>
          </g>
        </g>
        <g
           id="text_3">
          <!-- Protocol -->
          <g
             transform="translate(282.535306 415.774119)scale(0.28 -0.28)"
             id="g103">
            <defs
               id="defs85">
              <path
                 id="CMR17-50"
                 d="M 1267 2042  L 2291 2042  C 3117 2042 3718 2578 3718 3184  C 3718 3791 3130 4352 2291 4352  L 333 4352  L 333 4186  C 774 4186 845 4186 845 3899  L 845 446  C 845 160 774 160 333 160  L 333 0  C 518 0 858 0 1056 0  C 1254 0 1594 0 1779 0  L 1779 160  C 1338 160 1267 160 1267 446  L 1267 2042  z M 1254 2176  L 1254 3938  C 1254 4155 1267 4186 1523 4186  L 2170 4186  C 2995 4186 3232 3714 3232 3184  C 3232 2604 2950 2176 2170 2176  L 1254 2176  z "
                 transform="scale(0.015625)" />
              <path
                 id="CMR17-74"
                 d="M 966 2560  L 1862 2560  L 1862 2725  L 966 2725  L 966 3904  L 851 3904  C 838 3245 614 2668 70 2668  L 70 2560  L 627 2560  L 627 771  C 627 650 627 -64 1370 -64  C 1747 -64 1965 306 1965 777  L 1965 1140  L 1850 1140  L 1850 783  C 1850 344 1677 51 1408 51  C 1222 51 966 178 966 758  L 966 2560  z "
                 transform="scale(0.015625)" />
              <path
                 id="CMR17-63"
                 d="M 2234 2240  C 2112 2240 1933 2240 1933 2017  C 1933 1838 2080 1787 2163 1787  C 2208 1787 2394 1807 2394 2024  C 2394 2467 1958 2803 1466 2803  C 787 2803 211 2178 211 1363  C 211 516 813 -64 1466 -64  C 2259 -64 2458 677 2458 748  C 2458 774 2451 793 2406 793  C 2362 793 2355 787 2330 703  C 2163 180 1798 51 1523 51  C 1114 51 621 427 621 1369  C 621 2338 1094 2688 1472 2688  C 1722 2688 2093 2573 2234 2240  z "
                 transform="scale(0.015625)" />
              <path
                 id="CMR17-6c"
                 d="M 979 4396  L 218 4326  L 218 4160  C 595 4160 653 4122 653 3817  L 653 426  C 653 184 627 153 218 153  L 218 -13  C 371 0 653 0 813 0  C 979 0 1261 0 1414 -13  L 1414 153  C 1005 153 979 178 979 426  L 979 4396  z "
                 transform="scale(0.015625)" />
            </defs>
            <use
               xlink:href="#CMR17-50"
               transform="scale(0.996264)"
               id="use87" />
            <use
               xlink:href="#CMR17-72"
               transform="translate(62.586301 0)scale(0.996264)"
               id="use89" />
            <use
               xlink:href="#CMR17-6f"
               transform="translate(97.867068 0)scale(0.996264)"
               id="use91" />
            <use
               xlink:href="#CMR17-74"
               transform="translate(143.557545 0)scale(0.996264)"
               id="use93" />
            <use
               xlink:href="#CMR17-6f"
               transform="translate(178.838313 0)scale(0.996264)"
               id="use95" />
            <use
               xlink:href="#CMR17-63"
               transform="translate(227.131229 0)scale(0.996264)"
               id="use97" />
            <use
               xlink:href="#CMR17-6f"
               transform="translate(267.61689 0)scale(0.996264)"
               id="use99" />
            <use
               xlink:href="#CMR17-6c"
               transform="translate(313.307367 0)scale(0.996264)"
               id="use101" />
          </g>
        </g>
      </g>
      <g
         id="matplotlib.axis_2">
        <g
           id="ytick_1">
          <g
             id="line2d_3">
            <defs
               id="defs108">
              <path
                 id="maaf6709a4e"
                 d="M 0 0  L -3.5 0  "
                 style="stroke: #000000; stroke-width: 0.8" />
            </defs>
            <g
               id="g112">
              <use
                 xlink:href="#maaf6709a4e"
                 x="94.560538"
                 y="360.047158"
                 style="stroke: #000000; stroke-width: 0.8"
                 id="use110" />
            </g>
          </g>
          <g
             id="text_4">
            <!-- $\mathdefault{0}$ -->
            <g
               transform="translate(74.494823 368.349361)scale(0.24 -0.24)"
               id="g120">
              <defs
                 id="defs116">
                <path
                   id="CMR17-30"
                   d="M 2688 2025  C 2688 2416 2682 3080 2413 3591  C 2176 4039 1798 4198 1466 4198  C 1158 4198 768 4058 525 3597  C 269 3118 243 2524 243 2025  C 243 1661 250 1106 448 619  C 723 -39 1216 -128 1466 -128  C 1760 -128 2208 -7 2470 600  C 2662 1042 2688 1559 2688 2025  z M 1466 -26  C 1056 -26 813 325 723 812  C 653 1188 653 1738 653 2096  C 653 2588 653 2997 736 3387  C 858 3929 1216 4096 1466 4096  C 1728 4096 2067 3923 2189 3400  C 2272 3036 2278 2607 2278 2096  C 2278 1680 2278 1169 2202 792  C 2067 95 1690 -26 1466 -26  z "
                   transform="scale(0.015625)" />
              </defs>
              <use
                 xlink:href="#CMR17-30"
                 transform="scale(0.996264)"
                 id="use118" />
            </g>
          </g>
        </g>
        <g
           id="ytick_2">
          <g
             id="line2d_4">
            <g
               id="g126">
              <use
                 xlink:href="#maaf6709a4e"
                 x="94.560538"
                 y="292.842887"
                 style="stroke: #000000; stroke-width: 0.8"
                 id="use124" />
            </g>
          </g>
          <g
             id="text_5">
            <!-- $\mathdefault{500}$ -->
            <g
               transform="translate(52.563394 301.145089)scale(0.24 -0.24)"
               id="g138">
              <defs
                 id="defs130">
                <path
                   id="CMR17-35"
                   d="M 730 3692  C 794 3666 1056 3584 1325 3584  C 1920 3584 2246 3911 2432 4100  C 2432 4157 2432 4192 2394 4192  C 2387 4192 2374 4192 2323 4163  C 2099 4058 1837 3973 1517 3973  C 1325 3973 1037 3999 723 4139  C 653 4171 640 4171 634 4171  C 602 4171 595 4164 595 4037  L 595 2203  C 595 2089 595 2057 659 2057  C 691 2057 704 2070 736 2114  C 941 2401 1222 2522 1542 2522  C 1766 2522 2246 2382 2246 1289  C 2246 1085 2246 715 2054 421  C 1894 159 1645 25 1370 25  C 947 25 518 320 403 814  C 429 807 480 795 506 795  C 589 795 749 840 749 1038  C 749 1210 627 1280 506 1280  C 358 1280 262 1190 262 1011  C 262 454 704 -128 1382 -128  C 2042 -128 2669 440 2669 1264  C 2669 2030 2170 2624 1549 2624  C 1222 2624 947 2503 730 2274  L 730 3692  z "
                   transform="scale(0.015625)" />
              </defs>
              <use
                 xlink:href="#CMR17-35"
                 transform="scale(0.996264)"
                 id="use132" />
              <use
                 xlink:href="#CMR17-30"
                 transform="translate(45.690477 0)scale(0.996264)"
                 id="use134" />
              <use
                 xlink:href="#CMR17-30"
                 transform="translate(91.380954 0)scale(0.996264)"
                 id="use136" />
            </g>
          </g>
        </g>
        <g
           id="ytick_3">
          <g
             id="line2d_5">
            <g
               id="g144">
              <use
                 xlink:href="#maaf6709a4e"
                 x="94.560538"
                 y="225.638615"
                 style="stroke: #000000; stroke-width: 0.8"
                 id="use142" />
            </g>
          </g>
          <g
             id="text_6">
            <!-- $\mathdefault{1000}$ -->
            <g
               transform="translate(41.597679 233.940818)scale(0.24 -0.24)"
               id="g158">
              <defs
                 id="defs148">
                <path
                   id="CMR17-31"
                   d="M 1702 4058  C 1702 4192 1696 4192 1606 4192  C 1357 3916 979 3827 621 3827  C 602 3827 570 3827 563 3808  C 557 3795 557 3782 557 3648  C 755 3648 1088 3686 1344 3839  L 1344 461  C 1344 236 1331 160 781 160  L 589 160  L 589 0  C 896 0 1216 0 1523 0  C 1830 0 2150 0 2458 0  L 2458 160  L 2266 160  C 1715 160 1702 230 1702 458  L 1702 4058  z "
                   transform="scale(0.015625)" />
              </defs>
              <use
                 xlink:href="#CMR17-31"
                 transform="scale(0.996264)"
                 id="use150" />
              <use
                 xlink:href="#CMR17-30"
                 transform="translate(45.690477 0)scale(0.996264)"
                 id="use152" />
              <use
                 xlink:href="#CMR17-30"
                 transform="translate(91.380954 0)scale(0.996264)"
                 id="use154" />
              <use
                 xlink:href="#CMR17-30"
                 transform="translate(137.071431 0)scale(0.996264)"
                 id="use156" />
            </g>
          </g>
        </g>
        <g
           id="ytick_4">
          <g
             id="line2d_6">
            <g
               id="g164">
              <use
                 xlink:href="#maaf6709a4e"
                 x="94.560538"
                 y="158.434344"
                 style="stroke: #000000; stroke-width: 0.8"
                 id="use162" />
            </g>
          </g>
          <g
             id="text_7">
            <!-- $\mathdefault{1500}$ -->
            <g
               transform="translate(41.597679 166.736546)scale(0.24 -0.24)"
               id="g175">
              <use
                 xlink:href="#CMR17-31"
                 transform="scale(0.996264)"
                 id="use167" />
              <use
                 xlink:href="#CMR17-35"
                 transform="translate(45.690477 0)scale(0.996264)"
                 id="use169" />
              <use
                 xlink:href="#CMR17-30"
                 transform="translate(91.380954 0)scale(0.996264)"
                 id="use171" />
              <use
                 xlink:href="#CMR17-30"
                 transform="translate(137.071431 0)scale(0.996264)"
                 id="use173" />
            </g>
          </g>
        </g>
        <g
           id="ytick_5">
          <g
             id="line2d_7">
            <g
               id="g181">
              <use
                 xlink:href="#maaf6709a4e"
                 x="94.560538"
                 y="91.230072"
                 style="stroke: #000000; stroke-width: 0.8"
                 id="use179" />
            </g>
          </g>
          <g
             id="text_8">
            <!-- $\mathdefault{2000}$ -->
            <g
               transform="translate(41.597679 99.532275)scale(0.24 -0.24)"
               id="g195">
              <defs
                 id="defs185">
                <path
                   id="CMR17-32"
                   d="M 2669 989  L 2554 989  C 2490 536 2438 459 2413 420  C 2381 369 1920 369 1830 369  L 602 369  C 832 619 1280 1072 1824 1597  C 2214 1967 2669 2402 2669 3035  C 2669 3790 2067 4224 1395 4224  C 691 4224 262 3604 262 3030  C 262 2780 448 2748 525 2748  C 589 2748 781 2787 781 3010  C 781 3207 614 3264 525 3264  C 486 3264 448 3258 422 3245  C 544 3790 915 4058 1306 4058  C 1862 4058 2227 3617 2227 3035  C 2227 2479 1901 2000 1536 1584  L 262 146  L 262 0  L 2515 0  L 2669 989  z "
                   transform="scale(0.015625)" />
              </defs>
              <use
                 xlink:href="#CMR17-32"
                 transform="scale(0.996264)"
                 id="use187" />
              <use
                 xlink:href="#CMR17-30"
                 transform="translate(45.690477 0)scale(0.996264)"
                 id="use189" />
              <use
                 xlink:href="#CMR17-30"
                 transform="translate(91.380954 0)scale(0.996264)"
                 id="use191" />
              <use
                 xlink:href="#CMR17-30"
                 transform="translate(137.071431 0)scale(0.996264)"
                 id="use193" />
            </g>
          </g>
        </g>
        <g
           id="ytick_6">
          <g
             id="line2d_8">
            <g
               id="g201">
              <use
                 xlink:href="#maaf6709a4e"
                 x="94.560538"
                 y="24.025801"
                 style="stroke: #000000; stroke-width: 0.8"
                 id="use199" />
            </g>
          </g>
          <g
             id="text_9">
            <!-- $\mathdefault{2500}$ -->
            <g
               transform="translate(41.597679 32.328003)scale(0.24 -0.24)"
               id="g212">
              <use
                 xlink:href="#CMR17-32"
                 transform="scale(0.996264)"
                 id="use204" />
              <use
                 xlink:href="#CMR17-35"
                 transform="translate(45.690477 0)scale(0.996264)"
                 id="use206" />
              <use
                 xlink:href="#CMR17-30"
                 transform="translate(91.380954 0)scale(0.996264)"
                 id="use208" />
              <use
                 xlink:href="#CMR17-30"
                 transform="translate(137.071431 0)scale(0.996264)"
                 id="use210" />
            </g>
          </g>
        </g>
        <g
           id="text_10">
          <!-- Cycles -->
          <g
             transform="translate(30.171799 221.326084)rotate(-90)scale(0.28 -0.28)"
             id="g232">
            <defs
               id="defs218">
              <path
                 id="CMR17-43"
                 d="M 3974 4289  C 3974 4403 3968 4410 3930 4410  C 3904 4410 3898 4403 3853 4327  L 3571 3792  C 3258 4187 2874 4416 2381 4416  C 1286 4416 294 3456 294 2148  C 294 826 1286 -128 2387 -128  C 3366 -128 3974 730 3974 1461  C 3974 1524 3974 1550 3917 1550  C 3866 1550 3866 1531 3859 1474  C 3808 585 3168 38 2477 38  C 1824 38 781 495 781 2147  C 781 3805 1843 4250 2464 4250  C 3187 4250 3712 3628 3834 2745  C 3846 2668 3846 2655 3904 2655  C 3974 2655 3974 2668 3974 2783  L 3974 4289  z "
                 transform="scale(0.015625)" />
              <path
                 id="CMR17-79"
                 d="M 2496 2197  C 2656 2586 2944 2586 3034 2586  L 3034 2752  C 2912 2752 2752 2752 2630 2752  C 2496 2752 2285 2752 2157 2758  L 2157 2592  C 2400 2573 2406 2394 2406 2343  C 2406 2280 2394 2248 2362 2171  L 1664 449  L 902 2306  C 870 2382 870 2426 870 2433  C 870 2573 1018 2586 1171 2586  L 1171 2758  C 1018 2752 742 2752 582 2752  C 410 2752 205 2752 64 2758  L 64 2586  C 410 2586 448 2554 531 2350  L 1485 15  C 1197 -738 1030 -1178 627 -1178  C 557 -1178 397 -1159 282 -1044  C 429 -1031 493 -942 493 -833  C 493 -725 416 -629 288 -629  C 147 -629 77 -725 77 -840  C 77 -1095 339 -1280 627 -1280  C 998 -1280 1229 -922 1357 -604  L 2496 2197  z "
                 transform="scale(0.015625)" />
            </defs>
            <use
               xlink:href="#CMR17-43"
               transform="scale(0.996264)"
               id="use220" />
            <use
               xlink:href="#CMR17-79"
               transform="translate(66.509881 0)scale(0.996264)"
               id="use222" />
            <use
               xlink:href="#CMR17-63"
               transform="translate(114.802796 0)scale(0.996264)"
               id="use224" />
            <use
               xlink:href="#CMR17-6c"
               transform="translate(155.288457 0)scale(0.996264)"
               id="use226" />
            <use
               xlink:href="#CMR17-65"
               transform="translate(180.159515 0)scale(0.996264)"
               id="use228" />
            <use
               xlink:href="#CMR17-73"
               transform="translate(220.645176 0)scale(0.996264)"
               id="use230" />
          </g>
        </g>
      </g>
      <g
         id="patch_7">
        <path
           d="M 94.560538 360.047158  L 94.560538 10.8  "
           style="fill: none; stroke: #000000; stroke-width: 0.8; stroke-linejoin: miter; stroke-linecap: square"
           id="path236" />
      </g>
      <g
         id="patch_8">
        <path
           d="M 565.2 360.047158  L 565.2 10.8  "
           style="fill: none; stroke: #000000; stroke-width: 0.8; stroke-linejoin: miter; stroke-linecap: square"
           id="path239" />
      </g>
      <g
         id="patch_9">
        <path
           d="M 94.560538 360.047158  L 565.2 360.047158  "
           style="fill: none; stroke: #000000; stroke-width: 0.8; stroke-linejoin: miter; stroke-linecap: square"
           id="path242" />
      </g>
      <g
         id="patch_10">
        <path
           d="M 94.560538 10.8  L 565.2 10.8  "
           style="fill: none; stroke: #000000; stroke-width: 0.8; stroke-linejoin: miter; stroke-linecap: square"
           id="path245" />
      </g>
      <g
         id="legend_1"
         transform="matrix(0.70198134,0,0,0.70198134,164.41599,8.0286467)">
        <g
           id="patch_11">
          <path
             d="M 433.81221,89.726376 H 549.8 q 4.4,0 4.4,-4.4 V 26.2 q 0,-4.4 -4.4,-4.4 H 433.81221 q -4.4,0 -4.4,4.4 v 59.126376 q 0,4.4 4.4,4.4 z"
             style="opacity:0.8;fill:#ffffff;stroke:#cccccc;stroke-width:0.24;stroke-linejoin:miter"
             id="path248" />
        </g>
        <g
           id="patch_12">
          <path
             d="m 438.21221,46 h 44 V 30.6 h -44 z"
             style="fill:#1f77b4"
             id="path251" />
        </g>
        <g
           id="text_11">
          <!-- AAA -->
          <g
             transform="matrix(0.22,0,0,-0.22,499.81221,46)"
             id="g263">
            <defs
               id="defs255">
              <path
                 id="CMR17-41"
                 d="m 2323,4378 c -32,83 -45,102 -109,102 -64,0 -76,-19 -108,-102 L 749,566 C 627,223 371,153 147,153 V -13 C 262,0 518,0 640,0 c 160,0 416,0 570,-13 v 166 c -301,0 -346,208 -346,286 0,58 13,91 26,130 l 339,967 H 2906 L 3290,442 c 32,-77 32,-90 32,-115 0,-174 -276,-174 -397,-174 V 0 c 185,0 518,0 717,0 166,0 486,0 640,-13 v 166 c -340,0 -455,0 -538,234 z M 2067,3893 2848,1702 H 1286 Z"
                 transform="scale(0.015625)" />
            </defs>
            <use
               xlink:href="#CMR17-41"
               transform="scale(0.996264)"
               id="use257" />
            <use
               xlink:href="#CMR17-41"
               transform="matrix(0.996264,0,0,0.996264,69.07243,0)"
               id="use259" />
            <use
               xlink:href="#CMR17-41"
               transform="matrix(0.996264,0,0,0.996264,138.14486,0)"
               id="use261" />
          </g>
        </g>
        <g
           id="patch_13">
          <path
             d="m 438.21221,76.663188 h 44 v -15.4 h -44 z"
             style="fill:#ff7f0e"
             id="path266" />
        </g>
        <g
           id="text_12">
          <!-- BBB -->
          <g
             transform="matrix(0.22,0,0,-0.22,499.81221,76.663188)"
             id="g278">
            <defs
               id="defs270">
              <path
                 id="CMR17-42"
                 d="m 333,4352 v -166 c 441,0 512,0 512,-286 V 452 C 845,166 774,166 333,166 V 0 h 2201 c 820,0 1351,583 1351,1164 0,577 -525,1069 -1210,1069 615,123 1043,538 1043,1031 0,538 -524,1088 -1350,1088 z m 915,-2048 v 1633 c 0,218 13,249 269,249 h 819 c 634,0 915,-512 915,-909 0,-486 -390,-973 -1081,-973 z M 1517,166 c -256,0 -269,31 -269,247 v 1789 h 1184 c 659,0 979,-577 979,-1040 0,-463 -365,-996 -1062,-996 z"
                 transform="scale(0.015625)" />
            </defs>
            <use
               xlink:href="#CMR17-42"
               transform="scale(0.996264)"
               id="use272" />
            <use
               xlink:href="#CMR17-42"
               transform="matrix(0.996264,0,0,0.996264,65.188754,0)"
               id="use274" />
            <use
               xlink:href="#CMR17-42"
               transform="matrix(0.996264,0,0,0.996264,130.37751,0)"
               id="use276" />
          </g>
        </g>
      </g>
    </g>
  </g>
  <defs
     id="defs287">
    <clipPath
       id="pcdeacd5c4c">
      <rect
         x="94.560538"
         y="10.8"
         width="470.639462"
         height="349.247158"
         id="rect284" />
    </clipPath>
  </defs>
</svg>
